<svg width="16" height="16" viewBox="0 0 16 16" fill="none" xmlns="http://www.w3.org/2000/svg">
<path d="M0.292889 0.292889C0.683407 -0.0976295 1.31659 -0.0976295 1.7071 0.292889L8 6.58578L14.2929 0.292889C14.6834 -0.0976295 15.3166 -0.0976295 15.7071 0.292889C16.0976 0.683407 16.0976 1.31659 15.7071 1.7071L9.41421 8L15.7071 14.2929C16.0976 14.6834 16.0976 15.3166 15.7071 15.7071C15.3166 16.0976 14.6834 16.0976 14.2929 15.7071L8 9.41421L1.7071 15.7071C1.31659 16.0976 0.683407 16.0976 0.292889 15.7071C-0.0976295 15.3166 -0.0976295 14.6834 0.292889 14.2929L6.58578 8L0.292889 1.7071C-0.0976295 1.31659 -0.0976295 0.683407 0.292889 0.292889Z" fill="black"/>
</svg>
